<svg width="246" height="27" viewBox="0 0 246 27" fill="none" xmlns="http://www.w3.org/2000/svg">
<path d="M17.9864 20H16.528C16.2896 20 16.1703 19.8899 16.1703 19.6698L16.1978 17.7712C14.5835 19.3855 12.4281 20.1926 9.73146 20.1926C7.05318 20.1926 4.81517 19.2571 3.01742 17.3859C1.21967 15.5148 0.320795 13.0567 0.320795 10.0115C0.320795 7.97527 0.770232 6.18669 1.66911 4.64576C2.58632 3.10484 3.74202 1.95831 5.13619 1.20619C6.54871 0.454074 8.07129 0.078014 9.70394 0.078014C12.5106 0.078014 14.5285 0.949372 15.7576 2.69209L15.7301 0.573312C15.6934 0.353179 15.8034 0.243113 16.0603 0.243113H17.6012C17.8397 0.243113 17.9589 0.353179 17.9589 0.573312V6.24172C17.9589 6.46185 17.8397 6.57192 17.6012 6.57192H15.8676C15.6475 6.57192 15.5374 6.46185 15.5374 6.24172V5.91152C15.5374 5.10437 14.9779 4.30639 13.8589 3.51758C12.7583 2.72878 11.3458 2.33437 9.62139 2.33437C7.89702 2.33437 6.33775 3.0498 4.94358 4.48066C3.56775 5.89318 2.87983 7.79182 2.87983 10.1766C2.87983 12.543 3.57692 14.4233 4.97109 15.8175C6.36526 17.1933 7.92454 17.8812 9.64891 17.8812C11.3733 17.8812 12.7308 17.6061 13.7214 17.0557C14.7303 16.5054 15.4824 15.8542 15.9777 15.1021V12.9558H10.8596C10.6395 12.9558 10.5294 12.8365 10.5294 12.598V11.3323C10.5294 11.1122 10.6395 11.0021 10.8596 11.0021H17.9864C18.2066 11.0021 18.3166 11.1122 18.3166 11.3323V19.6698C18.3166 19.8899 18.2066 20 17.9864 20ZM26.4845 20H21.2289C20.9904 20 20.8711 19.8899 20.8711 19.6698V18.4866C20.8711 18.2665 20.9904 18.1564 21.2289 18.1564H22.7423V8.30546H21.2289C20.9904 8.30546 20.8711 8.1954 20.8711 7.97527V6.79205C20.8711 6.57192 20.9904 6.46186 21.2289 6.46186H24.4483C24.6868 6.46186 24.806 6.57192 24.806 6.79205V10.2316H24.8886C24.9436 9.93811 25.1362 9.53454 25.4664 9.02089C25.7966 8.50725 26.1543 8.08533 26.5396 7.75513C26.9431 7.40659 27.5118 7.09474 28.2456 6.81957C28.9977 6.5444 29.8415 6.40682 30.7771 6.40682C31.0156 6.40682 31.1348 6.52606 31.1348 6.76454V8.22291C31.1348 8.46139 31.0156 8.58063 30.7771 8.58063H30.1993C28.6216 8.58063 27.3651 9.0851 26.4295 10.094C25.4939 11.103 25.0261 12.2495 25.0261 13.5336V18.1564H26.4845C26.723 18.1564 26.8422 18.2665 26.8422 18.4866V19.6698C26.8422 19.8899 26.723 20 26.4845 20ZM43.8 18.2665C42.5159 19.5506 40.874 20.1926 38.8745 20.1926C36.875 20.1926 35.2331 19.5597 33.949 18.294C32.6649 17.0099 32.0229 15.313 32.0229 13.2034C32.0229 11.0755 32.6741 9.38778 33.9765 8.14036C35.279 6.89295 36.9116 6.26924 38.8745 6.26924C40.8557 6.26924 42.4883 6.90212 43.7724 8.16788C45.0749 9.4153 45.7261 11.0938 45.7261 13.2034C45.7261 15.2947 45.0841 16.9824 43.8 18.2665ZM34.3343 13.2034C34.3343 14.7076 34.7745 15.9275 35.6551 16.8631C36.5356 17.7987 37.6087 18.2665 38.8745 18.2665C40.1586 18.2665 41.2409 17.7987 42.1215 16.8631C43.002 15.9275 43.4422 14.7076 43.4422 13.2034C43.4422 11.6992 42.9928 10.4884 42.0939 9.57123C41.2134 8.65401 40.1494 8.1954 38.902 8.1954C37.6546 8.1954 36.5815 8.65401 35.6826 9.57123C34.7837 10.4884 34.3343 11.6992 34.3343 13.2034ZM61.6477 20H59.2537C58.4649 20 58.0705 19.6148 58.0705 18.8443V17.8262H57.988C57.2358 19.4038 55.805 20.1926 53.6954 20.1926C52.2278 20.1926 51.063 19.7615 50.2008 18.8993C49.3569 18.0188 48.9259 16.8539 48.9075 15.4047V8.30546H47.3391C47.1189 8.30546 47.0089 8.1954 47.0089 7.97527V6.79205C47.0089 6.57192 47.1189 6.46186 47.3391 6.46186H49.9807C50.7695 6.46186 51.1639 6.84709 51.1639 7.61755V14.8544C51.1639 15.9184 51.4207 16.7439 51.9343 17.3309C52.448 17.9179 53.2001 18.2114 54.1907 18.2114C55.5298 18.2114 56.5846 17.7161 57.3551 16.7255C57.6853 16.3036 57.8504 16.0193 57.8504 15.8725V8.30546H56.3645C56.1444 8.30546 56.0343 8.1954 56.0343 7.97527V6.79205C56.0343 6.57192 56.1444 6.46186 56.3645 6.46186H59.7765C59.9967 6.46186 60.1067 6.57192 60.1067 6.79205V18.1564H61.6477C61.8861 18.1564 62.0054 18.2665 62.0054 18.4866V19.6698C62.0054 19.8899 61.8861 20 61.6477 20ZM69.8887 26.1912H64.3578C64.1194 26.1912 64.0001 26.0812 64.0001 25.861V24.6778C64.0001 24.4577 64.1194 24.3476 64.3578 24.3476H65.8988V8.30546H64.4129C64.1744 8.30546 64.0552 8.1954 64.0552 7.97527V6.79205C64.0552 6.57192 64.1744 6.46186 64.4129 6.46186H67.6323C67.8708 6.46186 67.99 6.57192 67.99 6.79205L67.9625 8.96586H67.99C68.3386 8.21374 68.8981 7.58086 69.6685 7.06722C70.4573 6.53523 71.4204 6.26924 72.5578 6.26924C74.4105 6.26924 75.9056 6.90212 77.043 8.16788C78.1803 9.4153 78.749 11.0846 78.749 13.1759C78.749 15.2488 78.1895 16.9365 77.0705 18.2389C75.9515 19.5414 74.4564 20.1926 72.5853 20.1926C71.4479 20.1926 70.494 19.9358 69.7236 19.4222C68.9714 18.8902 68.4303 18.2481 68.1001 17.496H68.0175C68.0726 18.083 68.1001 18.5049 68.1001 18.7618V24.3476H69.8887C70.1271 24.3476 70.2464 24.4577 70.2464 24.6778V25.861C70.2464 26.0812 70.1271 26.1912 69.8887 26.1912ZM68.0451 13.286C68.0451 14.8819 68.4578 16.111 69.2833 16.9732C70.1271 17.8354 71.1361 18.2665 72.3101 18.2665C73.5025 18.2665 74.4931 17.8078 75.2819 16.8906C76.0891 15.9551 76.4926 14.7352 76.4926 13.2309C76.4926 11.7083 76.0891 10.4884 75.2819 9.57123C74.4931 8.65401 73.5025 8.1954 72.3101 8.1954C71.1177 8.1954 70.1088 8.64483 69.2833 9.54371C68.4578 10.4426 68.0451 11.69 68.0451 13.286ZM188.119 16.8081C188.229 16.8998 188.284 16.9915 188.284 17.0832C188.284 17.1566 188.238 17.2667 188.146 17.4134C188.073 17.5419 187.899 17.7436 187.623 18.0188C187.367 18.294 187 18.6058 186.523 18.9544C186.064 19.3029 185.459 19.5964 184.707 19.8349C183.973 20.0734 183.184 20.1926 182.34 20.1926C180.414 20.1926 178.8 19.5597 177.497 18.294C176.213 17.0282 175.571 15.3314 175.571 13.2034C175.571 11.0571 176.213 9.36944 177.497 8.14036C178.8 6.89295 180.387 6.26924 182.258 6.26924C184.129 6.26924 185.541 6.94798 186.495 8.30546H186.523L186.495 6.79205C186.495 6.55358 186.614 6.43434 186.853 6.43434H187.899C188.119 6.43434 188.229 6.55358 188.229 6.79205V11.4699C188.229 11.69 188.119 11.8001 187.899 11.8001H186.633C186.413 11.8001 186.303 11.69 186.303 11.4699V11.0021C186.284 10.3417 185.908 9.70881 185.174 9.10344C184.441 8.49808 183.505 8.1954 182.368 8.1954C181.249 8.1954 180.221 8.64483 179.286 9.54371C178.35 10.4426 177.883 11.6717 177.883 13.2309C177.883 14.7719 178.341 16.0009 179.258 16.9181C180.176 17.817 181.203 18.2665 182.34 18.2665C183.478 18.2665 184.441 18.028 185.229 17.551C186.037 17.0557 186.578 16.5788 186.853 16.1202C186.981 15.9 187.137 15.8725 187.321 16.0376L188.119 16.8081ZM203.888 20H201.494C200.705 20 200.311 19.6148 200.311 18.8443V17.441H200.256C198.917 19.2937 197.128 20.2201 194.89 20.2201C193.569 20.2201 192.487 19.8808 191.643 19.202C190.799 18.5049 190.377 17.5694 190.377 16.3953C190.377 14.8911 191.029 13.7904 192.331 13.0933C193.652 12.3779 195.459 12.0202 197.752 12.0202H200.063V11.69C200.063 9.39695 198.871 8.25043 196.486 8.25043C195.367 8.25043 194.56 8.3605 194.065 8.58063C193.569 8.78242 193.212 8.94752 192.991 9.07593C192.79 9.20434 192.634 9.30523 192.524 9.37861C192.249 9.59874 192.047 9.61709 191.918 9.43364L191.148 8.47056C191.019 8.32381 191.038 8.17705 191.203 8.0303C191.515 7.62672 192.157 7.23232 193.129 6.84709C194.101 6.46186 195.248 6.26924 196.569 6.26924C200.421 6.26924 202.347 8.10368 202.347 11.7725V18.1564H203.888C204.108 18.1564 204.218 18.2665 204.218 18.4866V19.6698C204.218 19.8899 204.108 20 203.888 20ZM200.063 13.6712H197.889C196.825 13.6712 195.945 13.7262 195.248 13.8363C194.551 13.9464 193.955 14.1848 193.459 14.5517C192.982 14.9186 192.744 15.4231 192.744 16.0651C192.744 16.7072 193.001 17.2392 193.514 17.6611C194.046 18.0647 194.734 18.2665 195.578 18.2665C197.357 18.2665 198.853 17.4776 200.063 15.9V13.6712ZM211.899 20H206.643C206.405 20 206.285 19.8899 206.285 19.6698V18.4866C206.285 18.2665 206.405 18.1564 206.643 18.1564H208.157V8.30546H206.643C206.405 8.30546 206.285 8.1954 206.285 7.97527V6.79205C206.285 6.57192 206.405 6.46186 206.643 6.46186H209.863C210.101 6.46186 210.22 6.57192 210.22 6.79205V10.2316H210.303C210.358 9.93811 210.55 9.53454 210.881 9.02089C211.211 8.50725 211.569 8.08533 211.954 7.75513C212.357 7.40659 212.926 7.09474 213.66 6.81957C214.412 6.5444 215.256 6.40682 216.191 6.40682C216.43 6.40682 216.549 6.52606 216.549 6.76454V8.22291C216.549 8.46139 216.43 8.58063 216.191 8.58063H215.614C214.036 8.58063 212.779 9.0851 211.844 10.094C210.908 11.103 210.44 12.2495 210.44 13.5336V18.1564H211.899C212.137 18.1564 212.257 18.2665 212.257 18.4866V19.6698C212.257 19.8899 212.137 20 211.899 20ZM231.856 20H229.462C229.04 20 228.728 19.9175 228.526 19.7524C228.343 19.5689 228.251 19.2662 228.251 18.8443V17.3034H228.224C227.93 18.0738 227.38 18.7526 226.573 19.3396C225.765 19.9083 224.784 20.1926 223.628 20.1926C221.794 20.1926 220.299 19.5506 219.143 18.2665C218.006 16.9824 217.437 15.3038 217.437 13.2309C217.437 11.1397 218.006 9.46116 219.143 8.1954C220.299 6.91129 221.803 6.26924 223.656 6.26924C224.793 6.26924 225.738 6.53523 226.49 7.06722C227.242 7.58086 227.783 8.21374 228.114 8.96586H228.141C228.123 8.59897 228.114 8.29629 228.114 8.05782V2.08672H226.573C226.334 2.08672 226.215 1.97666 226.215 1.75652V0.573312C226.215 0.353179 226.334 0.243113 226.573 0.243113H229.985C230.205 0.243113 230.315 0.353179 230.315 0.573312V18.1564H231.856C232.076 18.1564 232.186 18.2665 232.186 18.4866V19.6698C232.186 19.8899 232.076 20 231.856 20ZM219.694 13.1759C219.694 14.6985 220.088 15.9275 220.877 16.8631C221.684 17.7987 222.702 18.2665 223.931 18.2665C225.16 18.2665 226.169 17.8078 226.958 16.8906C227.747 15.9551 228.141 14.7168 228.141 13.1759C228.141 11.635 227.738 10.4242 226.93 9.54371C226.123 8.64483 225.123 8.1954 223.931 8.1954C222.739 8.1954 221.73 8.64483 220.904 9.54371C220.097 10.4426 219.694 11.6533 219.694 13.1759ZM240.394 20.1926C239.165 20.1926 238.184 19.9633 237.45 19.5047C236.716 19.0461 236.258 18.615 236.074 18.2114H236.019C236.056 19.1103 236.074 19.5873 236.074 19.6423C236.074 19.8808 235.946 20 235.689 20H234.753C234.515 20 234.396 19.8808 234.396 19.6423V15.5148C234.396 15.2763 234.515 15.1571 234.753 15.1571H235.827C236.083 15.1571 236.212 15.2763 236.212 15.5148V16.0651C236.395 16.6155 236.78 17.1199 237.368 17.5785C238.065 18.1289 238.936 18.404 239.982 18.404C242.036 18.404 243.063 17.6886 243.063 16.2577C243.063 15.7625 242.779 15.368 242.21 15.0745C241.642 14.7627 240.945 14.5059 240.119 14.3041C239.312 14.1023 238.505 13.873 237.698 13.6162C236.891 13.3593 236.203 12.9466 235.634 12.3779C235.065 11.7909 234.781 11.0571 234.781 10.1766C234.781 8.98421 235.212 8.03947 236.074 7.34238C236.936 6.62695 238.037 6.26924 239.376 6.26924C241.192 6.26924 242.495 6.80123 243.284 7.8652H243.339C243.302 7.2048 243.284 6.86543 243.284 6.84709C243.284 6.60861 243.403 6.48937 243.641 6.48937H244.522C244.76 6.48937 244.88 6.60861 244.88 6.84709V10.6719C244.88 10.9104 244.76 11.0296 244.522 11.0296H243.449C243.192 11.0296 243.063 10.9104 243.063 10.6719V10.2867C243.063 9.79136 242.77 9.30523 242.183 8.82828C241.614 8.33298 240.871 8.08533 239.954 8.08533C239.037 8.08533 238.321 8.27795 237.808 8.66318C237.294 9.04841 237.037 9.55288 237.037 10.1766C237.037 10.782 237.322 11.2589 237.89 11.6075C238.477 11.9376 239.184 12.2036 240.009 12.4054C240.835 12.5889 241.66 12.7998 242.486 13.0383C243.311 13.2768 244.008 13.6712 244.577 14.2215C245.164 14.7719 245.457 15.5331 245.457 16.5054C245.457 17.4776 245.035 18.3398 244.192 19.092C243.366 19.8257 242.1 20.1926 240.394 20.1926Z" fill="#111111"/>
<path d="M86.0858 20H80.8301C80.5917 20 80.4724 19.8899 80.4724 19.6698V18.4866C80.4724 18.2665 80.5917 18.1564 80.8301 18.1564H82.3436V2.08672H80.8301C80.5917 2.08672 80.4724 1.97666 80.4724 1.75652V0.573312C80.4724 0.353179 80.5917 0.243113 80.8301 0.243113H83.8845C84.3798 0.243113 84.6274 0.472418 84.6274 0.931028V18.1564H86.0858C86.3243 18.1564 86.4435 18.2665 86.4435 18.4866V19.6698C86.4435 19.8899 86.3243 20 86.0858 20ZM100.618 13.5061H90.7116C90.785 15.0287 91.2619 16.2027 92.1425 17.0282C93.0413 17.8537 94.0503 18.2665 95.1693 18.2665C96.2883 18.2665 97.2422 18.028 98.031 17.551C98.8382 17.0741 99.3793 16.6063 99.6545 16.1477C99.8012 15.9642 99.9663 15.9367 100.15 16.0651L100.893 16.8081C101.003 16.9181 101.058 17.019 101.058 17.1108C101.058 17.1841 101.012 17.285 100.92 17.4134C100.847 17.5419 100.682 17.7436 100.425 18.0188C100.168 18.294 99.8012 18.6058 99.3243 18.9544C98.8657 19.3029 98.2603 19.5964 97.5082 19.8349C96.7744 20.0734 95.9856 20.1926 95.1418 20.1926C93.2156 20.1926 91.6013 19.5597 90.2989 18.294C89.0147 17.0282 88.3727 15.3314 88.3727 13.2034C88.3727 11.0571 89.0147 9.36944 90.2989 8.14036C91.583 6.89295 93.1514 6.26924 95.0042 6.26924C96.8753 6.26924 98.3429 6.8746 99.4068 8.08533C100.471 9.27772 101.003 10.892 101.003 12.9282C101.003 13.0016 101.003 13.075 101.003 13.1484C101.003 13.3869 100.874 13.5061 100.618 13.5061ZM98.7189 11.8276C98.6639 10.6902 98.3062 9.78219 97.6458 9.10344C96.9854 8.4247 96.1048 8.08533 95.0042 8.08533C93.9035 8.08533 92.9588 8.39719 92.17 9.02089C91.3812 9.6446 90.9134 10.5802 90.7666 11.8276H98.7189ZM116.663 20H114.269C113.48 20 113.086 19.6148 113.086 18.8443V17.441H113.031C111.691 19.2937 109.903 20.2201 107.665 20.2201C106.344 20.2201 105.262 19.8808 104.418 19.202C103.574 18.5049 103.152 17.5694 103.152 16.3953C103.152 14.8911 103.803 13.7904 105.106 13.0933C106.427 12.3779 108.233 12.0202 110.527 12.0202H112.838V11.69C112.838 9.39695 111.646 8.25043 109.261 8.25043C108.142 8.25043 107.335 8.3605 106.839 8.58063C106.344 8.78242 105.986 8.94752 105.766 9.07593C105.564 9.20434 105.408 9.30523 105.298 9.37861C105.023 9.59874 104.821 9.61709 104.693 9.43364L103.923 8.47056C103.794 8.32381 103.812 8.17705 103.978 8.0303C104.289 7.62672 104.931 7.23232 105.904 6.84709C106.876 6.46186 108.023 6.26924 109.343 6.26924C113.196 6.26924 115.122 8.10368 115.122 11.7725V18.1564H116.663C116.883 18.1564 116.993 18.2665 116.993 18.4866V19.6698C116.993 19.8899 116.883 20 116.663 20ZM112.838 13.6712H110.664C109.6 13.6712 108.72 13.7262 108.023 13.8363C107.325 13.9464 106.729 14.1848 106.234 14.5517C105.757 14.9186 105.519 15.4231 105.519 16.0651C105.519 16.7072 105.775 17.2392 106.289 17.6611C106.821 18.0647 107.509 18.2665 108.353 18.2665C110.132 18.2665 111.627 17.4776 112.838 15.9V13.6712ZM126.447 20H124.604C124.42 20 124.292 19.9725 124.219 19.9175C124.145 19.8441 124.072 19.7065 123.998 19.5047L119.623 8.30546H118.082C117.862 8.30546 117.752 8.1954 117.752 7.97527V6.79205C117.752 6.57192 117.862 6.46186 118.082 6.46186H123.2C123.421 6.46186 123.531 6.57192 123.531 6.79205V7.97527C123.531 8.1954 123.421 8.30546 123.2 8.30546H121.99L125.512 17.5785H125.567L129.144 8.30546H127.906C127.686 8.30546 127.576 8.1954 127.576 7.97527V6.79205C127.576 6.57192 127.686 6.46186 127.906 6.46186H133.024C133.262 6.46186 133.382 6.57192 133.382 6.79205V7.97527C133.382 8.1954 133.262 8.30546 133.024 8.30546H131.51L127.08 19.5047C126.97 19.8349 126.759 20 126.447 20ZM140.313 20H135.057C134.819 20 134.699 19.8899 134.699 19.6698V18.4866C134.699 18.2665 134.819 18.1564 135.057 18.1564H136.571V8.30546H135.057C134.819 8.30546 134.699 8.1954 134.699 7.97527V6.79205C134.699 6.57192 134.819 6.46186 135.057 6.46186H138.524C138.744 6.46186 138.854 6.57192 138.854 6.79205V18.1564H140.313C140.551 18.1564 140.67 18.2665 140.67 18.4866V19.6698C140.67 19.8899 140.551 20 140.313 20ZM138.744 2.3894C139.056 2.70126 139.212 3.06815 139.212 3.49007C139.212 3.91199 139.056 4.2697 138.744 4.56321C138.451 4.85672 138.093 5.00348 137.671 5.00348C137.249 5.00348 136.882 4.85672 136.571 4.56321C136.277 4.2697 136.13 3.91199 136.13 3.49007C136.13 3.06815 136.277 2.70126 136.571 2.3894C136.882 2.07755 137.249 1.92162 137.671 1.92162C138.093 1.92162 138.451 2.07755 138.744 2.3894ZM157.4 20H154.786C153.997 20 153.602 19.6148 153.602 18.8443V11.6075C153.602 10.5435 153.346 9.71798 152.832 9.13096C152.318 8.54394 151.566 8.25043 150.576 8.25043C149.163 8.25043 148.062 8.82828 147.274 9.98397C147.182 10.094 147.063 10.2958 146.916 10.5893V18.1564H148.374C148.613 18.1564 148.732 18.2665 148.732 18.4866V19.6698C148.732 19.8899 148.613 20 148.374 20H143.119C142.88 20 142.761 19.8899 142.761 19.6698V18.4866C142.761 18.2665 142.88 18.1564 143.119 18.1564H144.632V8.30546H143.119C142.88 8.30546 142.761 8.1954 142.761 7.97527V6.79205C142.761 6.57192 142.88 6.46186 143.119 6.46186H146.338C146.577 6.46186 146.696 6.57192 146.696 6.79205L146.641 8.66318H146.723C147.677 7.06722 149.154 6.26924 151.153 6.26924C152.621 6.26924 153.768 6.70033 154.593 7.56252C155.419 8.4247 155.84 9.58957 155.859 11.0571V18.1564H157.4C157.638 18.1564 157.757 18.2665 157.757 18.4866V19.6698C157.757 19.8899 157.638 20 157.4 20ZM165.669 26.4389C164.752 26.4389 164.055 26.3747 163.578 26.2463C163.12 26.1178 162.744 25.9986 162.45 25.8885C162.175 25.7968 161.936 25.6959 161.735 25.5859C161.533 25.4941 161.34 25.3932 161.157 25.2832C160.35 24.7512 160.047 24.366 160.249 24.1275L160.964 23.1094C161.074 22.9443 161.23 22.9351 161.432 23.0819C161.45 23.0819 161.505 23.1185 161.597 23.1919C161.707 23.2836 161.808 23.3662 161.9 23.4396C162.01 23.5129 162.147 23.5955 162.312 23.6872C162.496 23.7973 162.698 23.889 162.918 23.9624C163.138 24.0541 163.376 24.1367 163.633 24.21C164.239 24.3751 164.908 24.4577 165.642 24.4577C166.963 24.4577 168.018 24.1367 168.806 23.4946C169.614 22.8709 170.017 21.8803 170.017 20.5228V17.3859C169.687 18.1564 169.137 18.8168 168.366 19.3671C167.614 19.9175 166.669 20.1926 165.532 20.1926C163.661 20.1926 162.157 19.5414 161.019 18.2389C159.9 16.9365 159.341 15.2488 159.341 13.1759C159.341 11.103 159.909 9.43364 161.047 8.16788C162.202 6.90212 163.697 6.26924 165.532 6.26924C166.669 6.26924 167.623 6.53523 168.394 7.06722C169.182 7.58086 169.751 8.21374 170.1 8.96586H170.155L170.127 6.79205C170.127 6.57192 170.237 6.46186 170.457 6.46186H173.704C173.924 6.46186 174.035 6.57192 174.035 6.79205V7.97527C174.035 8.1954 173.924 8.30546 173.704 8.30546H172.218V20.5228C172.218 22.4857 171.613 23.9624 170.402 24.953C169.21 25.9436 167.632 26.4389 165.669 26.4389ZM161.597 13.2309C161.597 14.7352 162.001 15.9551 162.808 16.8906C163.615 17.8078 164.624 18.2665 165.835 18.2665C167.045 18.2665 168.045 17.8078 168.834 16.8906C169.641 15.9734 170.045 14.7443 170.045 13.2034C170.045 11.6625 169.641 10.4426 168.834 9.54371C168.045 8.64483 167.045 8.1954 165.835 8.1954C164.624 8.1954 163.615 8.65401 162.808 9.57123C162.001 10.4884 161.597 11.7083 161.597 13.2309Z" fill="#FFB479"/>
</svg>
