<svg width="19" height="19" viewBox="0 0 19 19" fill="none" xmlns="http://www.w3.org/2000/svg">
<path fill-rule="evenodd" clip-rule="evenodd" d="M6.85714 2.28659C5.64472 2.28659 4.48196 2.76822 3.62465 3.62553C2.76735 4.48284 2.28571 5.6456 2.28571 6.85802C2.28571 8.07044 2.76735 9.2332 3.62465 10.0905C4.48196 10.9478 5.64472 11.4294 6.85714 11.4294C8.06956 11.4294 9.23232 10.9478 10.0896 10.0905C10.9469 9.2332 11.4286 8.07044 11.4286 6.85802C11.4286 5.6456 10.9469 4.48284 10.0896 3.62553C9.23232 2.76822 8.06956 2.28659 6.85714 2.28659ZM1.2967e-07 6.85802C-0.000137588 5.77882 0.254449 4.71483 0.743053 3.75258C1.23166 2.79033 1.94048 1.95699 2.81188 1.32033C3.68328 0.683679 4.69264 0.26169 5.75788 0.0886849C6.82312 -0.0843198 7.91415 -0.00345428 8.94224 0.324705C9.97034 0.652863 10.9065 1.21905 11.6745 1.97721C12.4425 2.73538 13.0207 3.66411 13.3621 4.68788C13.7035 5.71165 13.7985 6.80155 13.6392 7.86893C13.48 8.93632 13.0711 9.95105 12.4457 10.8306L17.9509 16.3357C18.159 16.5513 18.2742 16.84 18.2716 17.1396C18.269 17.4393 18.1488 17.7259 17.9369 17.9378C17.725 18.1497 17.4384 18.2699 17.1387 18.2725C16.8391 18.2751 16.5504 18.1599 16.3349 17.9517L10.8309 12.4477C9.80498 13.1772 8.59811 13.6102 7.34249 13.6993C6.08686 13.7884 4.83094 13.5301 3.71234 12.9528C2.59375 12.3755 1.65564 11.5015 1.00083 10.4264C0.346012 9.35136 -0.00024463 8.1168 1.2967e-07 6.85802Z" fill="#B0BABF"/>
</svg>
