<svg width="274" height="34" viewBox="0 0 274 34" fill="none" xmlns="http://www.w3.org/2000/svg">
<path d="M14.6946 33.4246C14.517 33.4246 14.3393 33.4119 14.1616 33.3865C14.0094 33.3865 13.8444 33.3738 13.6667 33.3484C13.5145 32.2571 13.4003 31.1658 13.3241 30.0745C13.248 29.0086 13.1972 27.9934 13.1719 27.029C11.9536 27.5873 10.6974 27.8665 9.40303 27.8665C7.77876 27.8665 6.24331 27.4224 4.79669 26.5341C3.37545 25.6458 2.22069 24.288 1.33241 22.4607C0.444138 20.6334 0 18.3366 0 15.5702C0 12.88 0.418758 10.5578 1.25628 8.60359C2.09379 6.64938 3.1851 5.03779 4.53021 3.76883C5.87531 2.49986 7.33462 1.56083 8.90814 0.95172C10.4816 0.34262 12.0044 0.038069 13.4764 0.038069C14.7961 0.038069 16.0016 0.266483 17.093 0.72331C18.1843 1.15476 19.0472 1.77655 19.6816 2.58869C20.3415 3.37545 20.6714 4.32717 20.6714 5.44386C20.6714 6.35752 20.4176 7.22041 19.9101 8.03255C19.4025 8.84469 18.6284 9.50455 17.5879 10.0122C16.5473 10.4944 15.2276 10.7355 13.6287 10.7355C13.8825 9.99947 14.0601 9.33959 14.1616 8.75586C14.2632 8.17214 14.3139 7.66455 14.3139 7.2331C14.3139 6.26869 14.1109 5.62152 13.7048 5.29159C13.2987 4.93628 12.8292 4.75862 12.2963 4.75862C11.2557 4.75862 10.3167 5.22814 9.47917 6.16717C8.64166 7.10621 7.98179 8.3371 7.49959 9.85987C7.01738 11.3573 6.77628 12.9689 6.77628 14.6947C6.77628 17.1564 7.25848 19.0853 8.2229 20.4811C9.18731 21.877 10.3928 22.5749 11.8394 22.5749C12.3978 22.5749 12.9815 22.4607 13.5906 22.2323V22.1942C13.5906 20.2908 13.7556 18.7807 14.0855 17.664C14.4408 16.522 14.885 15.7098 15.4179 15.2276C15.9763 14.7454 16.5473 14.5043 17.131 14.5043C17.7655 14.5043 18.3619 14.72 18.9203 15.1515C19.504 15.5829 19.9862 16.1413 20.3669 16.8265C20.7476 17.4864 20.9379 18.2097 20.9379 18.9964C20.9379 19.7071 20.7349 20.4304 20.3288 21.1664C19.9481 21.877 19.2883 22.5242 18.3492 23.1079C18.2985 23.3109 18.2604 23.514 18.235 23.717C18.2096 23.92 18.197 24.1231 18.197 24.3261C18.197 25.0113 18.3365 25.7854 18.6157 26.6483C18.9203 27.5112 19.3898 28.7167 20.0243 30.2649C19.872 30.8486 19.5167 31.3815 18.9583 31.8638C18.4254 32.346 17.7782 32.7267 17.0168 33.0058C16.2808 33.285 15.5067 33.4246 14.6946 33.4246ZM31.4521 27.9046C29.5486 27.9046 27.9751 27.5239 26.7315 26.7625C25.488 26.0011 24.5616 24.9987 23.9525 23.7551C23.3688 22.4861 23.0769 21.141 23.0769 19.7198C23.0769 18.3747 23.318 17.0295 23.8002 15.6844C24.3078 14.3393 25.0311 13.1211 25.9702 12.0298C26.9346 10.9131 28.102 10.0249 29.4725 9.36497C30.843 8.67972 32.4165 8.3371 34.1931 8.3371C36.0965 8.3371 37.6573 8.73048 38.8755 9.51724C40.1191 10.2787 41.0328 11.2938 41.6165 12.5628C42.2256 13.8318 42.5302 15.1895 42.5302 16.6362C42.5302 17.9559 42.2891 19.2883 41.8069 20.6334C41.3246 21.9531 40.6013 23.1713 39.6369 24.288C38.6979 25.3793 37.5431 26.2549 36.1726 26.9148C34.8022 27.5747 33.2286 27.9046 31.4521 27.9046ZM32.48 24.6687C33.1652 24.6687 33.7362 24.3134 34.1931 23.6028C34.6499 22.8922 34.9925 21.9912 35.2209 20.8999C35.4493 19.7832 35.5635 18.6538 35.5635 17.5118C35.5635 16.4966 35.462 15.5449 35.259 14.6566C35.0813 13.7429 34.8022 13.0069 34.4215 12.4486C34.0408 11.8649 33.5459 11.573 32.9368 11.573C32.2769 11.573 31.7059 11.9283 31.2237 12.6389C30.7669 13.3495 30.4242 14.2505 30.1958 15.3418C29.9674 16.4331 29.8532 17.5625 29.8532 18.73C29.8532 19.7451 29.942 20.7095 30.1197 21.6232C30.3227 22.5115 30.6146 23.2475 30.9953 23.8312C31.376 24.3895 31.8709 24.6687 32.48 24.6687ZM53.0518 27.9046C51.1483 27.9046 49.5748 27.5239 48.3312 26.7625C47.0876 26.0011 46.1613 24.9987 45.5522 23.7551C44.9685 22.4861 44.6766 21.141 44.6766 19.7198C44.6766 18.3747 44.9177 17.0295 45.3999 15.6844C45.9075 14.3393 46.6308 13.1211 47.5698 12.0298C48.5343 10.9131 49.7017 10.0249 51.0722 9.36497C52.4427 8.67972 54.0162 8.3371 55.7927 8.3371C57.6962 8.3371 59.257 8.73048 60.4752 9.51724C61.7188 10.2787 62.6325 11.2938 63.2162 12.5628C63.8253 13.8318 64.1298 15.1895 64.1298 16.6362C64.1298 17.9559 63.8887 19.2883 63.4065 20.6334C62.9243 21.9531 62.201 23.1713 61.2366 24.288C60.2976 25.3793 59.1428 26.2549 57.7723 26.9148C56.4018 27.5747 54.8283 27.9046 53.0518 27.9046ZM54.0796 24.6687C54.7649 24.6687 55.3359 24.3134 55.7927 23.6028C56.2496 22.8922 56.5922 21.9912 56.8206 20.8999C57.049 19.7832 57.1632 18.6538 57.1632 17.5118C57.1632 16.4966 57.0617 15.5449 56.8587 14.6566C56.681 13.7429 56.4018 13.0069 56.0212 12.4486C55.6405 11.8649 55.1456 11.573 54.5365 11.573C53.8766 11.573 53.3056 11.9283 52.8234 12.6389C52.3665 13.3495 52.0239 14.2505 51.7955 15.3418C51.5671 16.4331 51.4529 17.5625 51.4529 18.73C51.4529 19.7451 51.5417 20.7095 51.7194 21.6232C51.9224 22.5115 52.2143 23.2475 52.5949 23.8312C52.9756 24.3895 53.4705 24.6687 54.0796 24.6687ZM71.6847 27.7904C70.7711 27.7904 69.9082 27.4731 69.0961 26.8387C68.3093 26.2042 67.6621 25.2778 67.1545 24.0596C66.6723 22.8414 66.4312 21.3694 66.4312 19.6436C66.4312 17.8671 66.685 16.2809 67.1926 14.885C67.7002 13.4891 68.3601 12.309 69.1722 11.3446C70.0097 10.3548 70.9107 9.60607 71.8751 9.09848C72.8649 8.5909 73.8293 8.3371 74.7683 8.3371C75.8089 8.3371 76.7352 8.66703 77.5474 9.3269C78.3595 9.96137 78.9178 10.9639 79.2224 12.3344C79.4508 11.0654 79.6412 9.85987 79.7934 8.71779C79.9711 7.55034 80.0599 6.52248 80.0599 5.63421C80.0599 4.46676 79.9076 3.61655 79.6031 3.08359V2.85517C80.1868 2.19531 80.8213 1.7131 81.5065 1.40855C82.2172 1.07862 82.8897 0.91366 83.5242 0.91366C84.3617 0.91366 85.0723 1.18014 85.6561 1.7131C86.2398 2.22069 86.5316 2.95669 86.5316 3.9211C86.5316 4.45407 86.4428 5.24083 86.2652 6.28138C86.0875 7.32193 85.8718 8.51476 85.618 9.85987C85.3642 11.1796 85.0977 12.5501 84.8185 13.9713C84.5647 15.3672 84.349 16.7123 84.1714 18.0067C83.9937 19.2756 83.9049 20.3796 83.9049 21.3187C83.9049 22.1054 83.981 22.7399 84.1333 23.2221C84.311 23.6789 84.5901 23.9073 84.9708 23.9073C85.25 23.9073 85.5292 23.8185 85.8083 23.6409C86.1129 23.4378 86.3159 23.2094 86.4174 22.9556L86.6839 23.146C86.6839 23.9835 86.4174 24.7575 85.8845 25.4682C85.3515 26.1534 84.679 26.7118 83.8668 27.1432C83.0547 27.5747 82.2172 27.7904 81.3543 27.7904C80.4152 27.7904 79.6665 27.5366 79.1082 27.029C78.5752 26.496 78.1945 25.8235 77.9661 25.0113C77.7377 24.1992 77.6108 23.3617 77.5854 22.4988C76.7987 24.3261 75.8723 25.6712 74.8064 26.5341C73.7658 27.3716 72.7253 27.7904 71.6847 27.7904ZM74.2354 22.9556C74.8952 22.9556 75.6312 22.3592 76.4434 21.1664C77.2555 19.9735 77.9661 18.2351 78.5752 15.9509L78.8036 14.7708C78.3976 13.8318 77.9534 13.1719 77.4712 12.7912C77.0144 12.3851 76.5703 12.1821 76.1388 12.1821C75.5043 12.1821 74.9079 12.5374 74.3496 13.248C73.7912 13.9333 73.3344 14.8215 72.9791 15.9129C72.6492 16.9788 72.4842 18.1082 72.4842 19.301C72.4842 20.4431 72.6492 21.344 72.9791 22.0039C73.309 22.6384 73.7278 22.9556 74.2354 22.9556ZM105.602 27.9046C104.688 27.9046 103.647 27.7396 102.48 27.4097C101.338 27.0798 100.132 26.7244 98.8636 26.3438C97.62 25.9377 96.3764 25.6458 95.1328 25.4682C94.2699 26.2803 93.4578 26.864 92.6964 27.2193C91.9604 27.5493 91.3006 27.7142 90.7168 27.7142C89.9808 27.7142 89.359 27.4985 88.8515 27.0671C88.3439 26.6356 87.9632 26.09 87.7094 25.4301C87.4556 24.7449 87.3287 24.0469 87.3287 23.3363C87.3287 22.6003 87.4556 21.9024 87.7094 21.2425C87.9886 20.5827 88.4073 20.0497 88.9657 19.6436C89.524 19.2122 90.2346 18.9964 91.0975 18.9964C91.2752 18.9964 91.4655 19.0091 91.6686 19.0345C91.8716 19.0599 92.0873 19.098 92.3157 19.1487C92.7979 17.6767 93.2167 16.0524 93.572 14.2759C93.9527 12.474 94.2446 10.7101 94.4476 8.98428C94.676 7.25848 94.7902 5.7611 94.7902 4.49214C94.7902 3.98455 94.7648 3.62924 94.7141 3.42621C94.6633 3.19779 94.5745 2.96938 94.4476 2.74096L94.4095 2.62676C94.7141 1.81462 95.2217 1.18014 95.9323 0.72331C96.6429 0.266483 97.3916 0.038069 98.1784 0.038069C99.0413 0.038069 99.7523 0.35531 100.31 0.98979C100.868 1.5989 101.147 2.62676 101.147 4.07338C101.147 4.98703 101.033 6.1291 100.805 7.49959C100.602 8.84469 100.31 10.304 99.9293 11.8775C99.5493 13.4257 99.1301 14.9611 98.6733 16.4839C98.2164 18.0067 97.7596 19.3644 97.3028 20.5573C98.4195 20.8111 99.5363 21.1029 100.653 21.4329C101.795 21.7628 102.911 21.9278 104.003 21.9278C104.84 21.9278 105.64 21.7755 106.401 21.4709C107.188 21.1664 107.924 20.608 108.609 19.7959C109.117 20.1258 109.485 20.5953 109.713 21.2044C109.967 21.8135 110.094 22.4607 110.094 23.146C110.094 23.9073 109.929 24.656 109.599 25.392C109.294 26.1027 108.812 26.6991 108.152 27.1813C107.492 27.6635 106.642 27.9046 105.602 27.9046ZM116.25 27.7904C115.108 27.7904 114.144 27.3209 113.357 26.3818C112.596 25.4428 112.215 24.1865 112.215 22.613C112.215 21.7501 112.317 20.8238 112.52 19.834C112.723 18.8442 112.926 17.9051 113.129 17.0169C113.306 16.357 113.446 15.7479 113.548 15.1895C113.674 14.6058 113.738 14.1363 113.738 13.781C113.738 13.3242 113.636 12.9942 113.433 12.7912C113.256 12.5882 113.04 12.4867 112.786 12.4867C112.532 12.4867 112.279 12.5755 112.025 12.7531C111.771 12.9054 111.568 13.1465 111.416 13.4764L111.111 13.3622C111.111 12.3217 111.365 11.4334 111.872 10.6974C112.38 9.96137 113.027 9.40303 113.814 9.02234C114.601 8.64166 115.4 8.45131 116.212 8.45131C116.872 8.45131 117.507 8.5909 118.116 8.87007C118.725 9.12386 119.22 9.52993 119.6 10.0883C120.007 10.6467 120.21 11.3446 120.21 12.1821C120.21 12.6897 120.133 13.2988 119.981 14.0094C119.854 14.72 119.702 15.456 119.524 16.2174C119.347 17.0042 119.169 17.8036 118.991 18.6158C118.839 19.4025 118.763 20.1004 118.763 20.7095C118.763 21.2679 118.852 21.7247 119.029 22.08C119.207 22.4353 119.474 22.613 119.829 22.613C120.489 22.613 121.225 22.0039 122.037 20.7857C122.874 19.5675 123.547 17.9305 124.055 15.8748C124.156 15.4687 124.245 15.0373 124.321 14.5804C124.397 14.1236 124.435 13.6541 124.435 13.1719C124.435 12.7912 124.41 12.4105 124.359 12.0298C124.308 11.6238 124.232 11.2177 124.131 10.8116V10.5451C124.537 9.85987 125.057 9.33959 125.692 8.98428C126.351 8.62897 127.011 8.45131 127.671 8.45131C128.559 8.45131 129.359 8.75586 130.069 9.36497C130.78 9.97407 131.135 10.8624 131.135 12.0298C131.135 12.7151 131.008 13.5145 130.755 14.4282C130.501 15.3164 130.222 16.2428 129.917 17.2072C129.613 18.1462 129.333 19.0726 129.08 19.9862C128.826 20.8999 128.699 21.712 128.699 22.4227C128.699 23.4632 129.067 23.9835 129.803 23.9835C130.006 23.9835 130.247 23.9327 130.526 23.8312C130.831 23.7043 131.11 23.4632 131.364 23.1079L131.63 23.184C131.63 24.0977 131.376 24.9098 130.869 25.6204C130.387 26.3057 129.765 26.8387 129.004 27.2193C128.242 27.6 127.455 27.7904 126.643 27.7904C125.603 27.7904 124.664 27.4097 123.826 26.6483C123.014 25.8869 122.608 24.6433 122.608 22.9175V22.8414C121.567 24.618 120.489 25.8869 119.372 26.6483C118.255 27.4097 117.215 27.7904 116.25 27.7904ZM141.138 27.9046C139.463 27.9046 138.042 27.5239 136.874 26.7625C135.732 26.0011 134.869 25.0113 134.286 23.7931C133.702 22.5495 133.41 21.2171 133.41 19.7959C133.41 18.4508 133.664 17.1057 134.171 15.7606C134.704 14.4155 135.478 13.1846 136.494 12.0679C137.509 10.9258 138.74 10.0249 140.186 9.36497C141.658 8.67972 143.346 8.3371 145.249 8.3371C147.128 8.3371 148.523 8.71779 149.437 9.47917C150.351 10.2152 150.808 11.0273 150.808 11.9156C150.808 12.8547 150.338 13.7175 149.399 14.5043C148.46 15.2911 147.089 15.6844 145.288 15.6844C145.389 15.3038 145.465 14.9231 145.516 14.5424C145.592 14.1363 145.63 13.7556 145.63 13.4003C145.63 12.8673 145.516 12.4232 145.288 12.0679C145.059 11.6872 144.653 11.4969 144.069 11.4969C143.536 11.4969 142.965 11.738 142.356 12.2202C141.772 12.7024 141.265 13.413 140.833 14.352C140.427 15.2911 140.224 16.4458 140.224 17.8163C140.224 19.1614 140.44 20.2527 140.872 21.0902C141.328 21.9278 141.912 22.5369 142.623 22.9175C143.333 23.2729 144.082 23.4505 144.869 23.4505C145.909 23.4505 146.912 23.184 147.876 22.6511C148.841 22.0927 149.539 21.3313 149.97 20.3669L150.351 20.5192C150.351 21.8389 150.046 22.9683 149.437 23.9073C148.853 24.821 148.092 25.5824 147.153 26.1915C146.214 26.7752 145.211 27.2067 144.145 27.4858C143.08 27.765 142.077 27.9046 141.138 27.9046ZM166.502 27.8284C165.664 27.8284 164.877 27.6381 164.141 27.2574C163.405 26.8513 162.809 26.2676 162.352 25.5062C161.895 24.7449 161.667 23.8312 161.667 22.7653C161.667 21.674 161.933 20.4431 162.466 19.0726C162.873 18.8695 163.355 18.5523 163.913 18.1209C164.471 17.6894 164.966 17.2072 165.398 16.6742C165.829 16.1159 166.045 15.5702 166.045 15.0373C166.045 14.5551 165.855 14.1744 165.474 13.8952C165.119 13.616 164.674 13.4764 164.141 13.4764C163.482 13.4764 162.86 13.6795 162.276 14.0855C161.692 14.4916 161.172 15.0246 160.715 15.6844C160.284 16.3189 159.941 17.0169 159.687 17.7782C159.459 18.5142 159.345 19.2249 159.345 19.9101C159.345 20.57 159.421 21.1918 159.573 21.7755C159.751 22.3338 159.84 22.981 159.84 23.717C159.84 24.8591 159.535 25.8235 158.926 26.6102C158.317 27.397 157.416 27.7904 156.223 27.7904C155.132 27.7904 154.256 27.4224 153.596 26.6864C152.937 25.9504 152.607 24.9479 152.607 23.6789C152.607 23.0191 152.683 22.1435 152.835 21.0522C153.013 19.9609 153.228 18.7553 153.482 17.4356C153.736 16.1159 153.977 14.7581 154.205 13.3622C154.459 11.941 154.662 10.5832 154.815 9.28883C154.992 7.9691 155.081 6.78896 155.081 5.74841C155.081 5.19007 155.043 4.68248 154.967 4.22566C154.916 3.74345 154.789 3.36276 154.586 3.08359V2.85517C155.145 2.22069 155.754 1.75117 156.413 1.44662C157.073 1.14207 157.721 0.98979 158.355 0.98979C159.319 0.98979 160.144 1.33241 160.829 2.01765C161.515 2.7029 161.857 3.71807 161.857 5.06317C161.857 5.77379 161.756 6.63669 161.553 7.65186C161.375 8.66703 161.147 9.73297 160.868 10.8497C160.614 11.9664 160.347 13.0323 160.068 14.0475C160.626 13.2353 161.261 12.3978 161.972 11.5349C162.682 10.672 163.482 9.94867 164.37 9.36497C165.258 8.75586 166.261 8.45131 167.377 8.45131C168.672 8.45131 169.687 8.87007 170.423 9.70757C171.159 10.5198 171.527 11.4969 171.527 12.6389C171.527 13.781 171.108 14.9992 170.271 16.2935C169.458 17.5879 168.088 18.6792 166.159 19.5675C166.489 20.3035 166.946 20.9633 167.53 21.5471C168.113 22.1308 168.748 22.5876 169.433 22.9175C170.144 23.2221 170.804 23.3744 171.413 23.3744C171.717 23.3744 171.984 23.3236 172.212 23.2221L172.441 23.4505C171.806 24.9225 170.93 26.0265 169.814 26.7625C168.722 27.4731 167.618 27.8284 166.502 27.8284ZM182.973 27.8665C181.374 27.8665 179.991 27.5493 178.823 26.9148C177.681 26.2549 176.73 25.3667 175.968 24.25C175.232 23.1079 174.686 21.8262 174.331 20.405C174.001 18.9584 173.862 17.461 173.912 15.9129C174.014 13.1465 174.522 10.7609 175.435 8.75586C176.349 6.7509 177.504 5.10124 178.899 3.8069C180.295 2.51255 181.793 1.56083 183.392 0.95172C185.016 0.317241 186.577 0 188.074 0C189.343 0 190.485 0.215724 191.5 0.64717C192.541 1.05324 193.366 1.66234 193.975 2.47448C194.584 3.26124 194.888 4.22565 194.888 5.36772C194.888 6.256 194.622 7.1189 194.089 7.95641C193.581 8.76855 192.795 9.4411 191.729 9.97407C190.688 10.4817 189.343 10.7355 187.693 10.7355C187.973 9.92327 188.176 9.21269 188.302 8.60359C188.429 7.99448 188.493 7.47421 188.493 7.04276C188.493 6.15448 188.29 5.55807 187.884 5.25352C187.478 4.92359 186.97 4.75862 186.361 4.75862C185.625 4.75862 184.927 5.0251 184.267 5.55807C183.607 6.09103 183.011 6.81435 182.478 7.728C181.97 8.61628 181.564 9.60607 181.26 10.6974C180.955 11.7887 180.778 12.8927 180.727 14.0094C180.625 16.8265 181.031 18.9584 181.945 20.405C182.859 21.8516 184.039 22.5749 185.485 22.5749C186.602 22.5749 187.833 22.1181 189.178 21.2044C190.549 20.2908 191.894 18.9076 193.213 17.0549L193.708 17.2833C193.378 19.5675 192.655 21.4963 191.538 23.0698C190.422 24.6433 189.102 25.8362 187.579 26.6483C186.082 27.4604 184.546 27.8665 182.973 27.8665ZM209.584 27.8284C208.696 27.8284 207.922 27.5366 207.262 26.9529C206.602 26.3691 206.272 25.4174 206.272 24.0977C206.272 23.9708 206.272 23.8439 206.272 23.717C206.272 23.5901 206.285 23.4632 206.31 23.3363C205.549 24.8591 204.686 25.9884 203.722 26.7244C202.783 27.4351 201.831 27.7904 200.866 27.7904C199.978 27.7904 199.141 27.4858 198.354 26.8767C197.567 26.2422 196.933 25.3159 196.45 24.0977C195.968 22.8795 195.727 21.4075 195.727 19.6817C195.727 17.9051 195.968 16.3189 196.45 14.9231C196.958 13.5272 197.618 12.3471 198.43 11.3827C199.242 10.4182 200.13 9.69487 201.095 9.21269C202.059 8.7051 202.998 8.45131 203.912 8.45131C204.927 8.45131 205.841 8.76855 206.653 9.40303C207.465 10.0122 208.023 10.9893 208.328 12.3344C208.404 11.9029 208.455 11.5095 208.48 11.1542C208.531 10.7989 208.556 10.5578 208.556 10.4309C208.582 9.74567 208.924 9.23807 209.584 8.90814C210.269 8.57821 211.018 8.41324 211.83 8.41324C212.541 8.41324 213.213 8.55283 213.848 8.832C214.482 9.11117 214.914 9.58069 215.142 10.2406L215.218 10.469C214.914 11.1542 214.609 11.9791 214.305 12.9435C214 13.9079 213.721 14.9231 213.467 15.989C213.213 17.0295 213.01 18.0574 212.858 19.0726C212.706 20.0624 212.63 20.938 212.63 21.6993C212.63 22.5369 212.719 23.1206 212.896 23.4505C213.074 23.7551 213.29 23.9073 213.543 23.9073C213.975 23.9073 214.368 23.6028 214.724 22.9937L215.028 23.146C215.028 24.0089 214.749 24.7956 214.191 25.5062C213.632 26.2169 212.934 26.7879 212.097 27.2193C211.259 27.6254 210.422 27.8284 209.584 27.8284ZM203.379 22.9937C204.039 22.9937 204.762 22.41 205.549 21.2425C206.361 20.0497 207.059 18.3493 207.643 16.1413C207.693 15.9129 207.744 15.6971 207.795 15.4941C207.846 15.2657 207.884 15.05 207.909 14.8469C207.503 13.9079 207.072 13.248 206.615 12.8673C206.183 12.4613 205.752 12.2582 205.32 12.2582C204.686 12.2582 204.09 12.6009 203.531 13.2861C202.998 13.946 202.554 14.7835 202.199 15.7987C201.869 16.8138 201.704 17.829 201.704 18.8442C201.704 20.24 201.856 21.2806 202.161 21.9658C202.491 22.6511 202.897 22.9937 203.379 22.9937ZM221.669 27.7904C220.756 27.7904 219.944 27.4224 219.233 26.6864C218.522 25.925 218.167 24.8591 218.167 23.4886C218.167 22.8287 218.243 22.08 218.395 21.2425C218.548 20.405 218.725 19.5548 218.928 18.6919C219.131 17.8036 219.309 16.9788 219.461 16.2174C219.614 15.4307 219.69 14.7835 219.69 14.2759C219.69 13.7429 219.588 13.3242 219.385 13.0196C219.208 12.6897 218.966 12.5247 218.662 12.5247C218.18 12.5247 217.685 12.8547 217.177 13.5145L216.949 13.3622C216.923 12.9562 217.012 12.474 217.215 11.9156C217.418 11.3573 217.736 10.8243 218.167 10.3167C218.598 9.78377 219.144 9.33959 219.804 8.98428C220.489 8.62897 221.289 8.45131 222.202 8.45131C223.547 8.45131 224.525 8.84469 225.134 9.63145C225.743 10.3929 226.047 11.3192 226.047 12.4105C226.047 12.5882 226.035 12.7785 226.009 12.9815C226.009 13.1592 225.997 13.3369 225.971 13.5145C226.885 11.8649 227.837 10.6086 228.826 9.74567C229.841 8.85738 230.781 8.41324 231.643 8.41324C232.456 8.41324 233.052 8.73048 233.433 9.36497C233.813 9.99947 234.004 10.7609 234.004 11.6491C234.004 12.4613 233.839 13.2861 233.509 14.1236C233.204 14.9611 232.735 15.6591 232.1 16.2174C231.491 16.7504 230.742 17.0042 229.854 16.9788L229.702 16.9027C229.677 16.2428 229.461 15.7225 229.055 15.3418C228.649 14.9611 228.192 14.7708 227.684 14.7708C226.999 14.7708 226.352 15.1134 225.743 15.7987C225.159 16.4839 224.867 17.4737 224.867 18.768C224.867 19.5548 224.956 20.405 225.134 21.3187C225.311 22.2323 225.4 23.0064 225.4 23.6409C225.4 24.4022 225.222 25.1002 224.867 25.7347C224.512 26.3691 224.055 26.8767 223.497 27.2574C222.938 27.6127 222.329 27.7904 221.669 27.7904ZM239.946 27.7904C239.033 27.7904 238.17 27.4731 237.358 26.8387C236.571 26.2042 235.924 25.2778 235.416 24.0596C234.934 22.8414 234.693 21.3694 234.693 19.6436C234.693 17.8671 234.947 16.2809 235.454 14.885C235.962 13.4891 236.622 12.309 237.434 11.3446C238.271 10.3548 239.172 9.60607 240.137 9.09848C241.126 8.5909 242.091 8.3371 243.03 8.3371C244.07 8.3371 244.997 8.66703 245.809 9.3269C246.621 9.96137 247.179 10.9639 247.484 12.3344C247.712 11.0654 247.903 9.85987 248.055 8.71779C248.233 7.55034 248.321 6.52248 248.321 5.63421C248.321 4.46676 248.169 3.61655 247.865 3.08359V2.85517C248.448 2.19531 249.083 1.7131 249.768 1.40855C250.479 1.07862 251.151 0.91366 251.786 0.91366C252.623 0.91366 253.334 1.18014 253.918 1.7131C254.501 2.22069 254.793 2.95669 254.793 3.9211C254.793 4.45407 254.704 5.24083 254.527 6.28138C254.349 7.32193 254.133 8.51476 253.88 9.85987C253.626 11.1796 253.359 12.5501 253.08 13.9713C252.826 15.3672 252.611 16.7123 252.433 18.0067C252.255 19.2756 252.166 20.3796 252.166 21.3187C252.166 22.1054 252.243 22.7399 252.395 23.2221C252.573 23.6789 252.852 23.9073 253.232 23.9073C253.512 23.9073 253.791 23.8185 254.07 23.6409C254.374 23.4378 254.577 23.2094 254.679 22.9556L254.945 23.146C254.945 23.9835 254.679 24.7575 254.146 25.4682C253.613 26.1534 252.941 26.7118 252.128 27.1432C251.316 27.5747 250.479 27.7904 249.616 27.7904C248.677 27.7904 247.928 27.5366 247.37 27.029C246.837 26.496 246.456 25.8235 246.228 25.0113C245.999 24.1992 245.872 23.3617 245.847 22.4988C245.06 24.3261 244.134 25.6712 243.068 26.5341C242.027 27.3716 240.987 27.7904 239.946 27.7904ZM242.497 22.9556C243.157 22.9556 243.893 22.3592 244.705 21.1664C245.517 19.9735 246.228 18.2351 246.837 15.9509L247.065 14.7708C246.659 13.8318 246.215 13.1719 245.733 12.7912C245.276 12.3851 244.832 12.1821 244.4 12.1821C243.766 12.1821 243.169 12.5374 242.611 13.248C242.053 13.9333 241.596 14.8215 241.241 15.9129C240.911 16.9788 240.746 18.1082 240.746 19.301C240.746 20.4431 240.911 21.344 241.241 22.0039C241.571 22.6384 241.989 22.9556 242.497 22.9556ZM263.131 27.9807C261.558 27.9807 260.251 27.765 259.21 27.3335C258.17 26.9021 257.396 26.3564 256.888 25.6966C256.381 25.0113 256.127 24.3261 256.127 23.6409C256.127 22.6764 256.558 21.8262 257.421 21.0902C258.284 20.3289 259.451 19.9482 260.923 19.9482C260.923 21.2425 261.088 22.2831 261.418 23.0698C261.748 23.8312 262.167 24.3769 262.675 24.7068C263.208 25.0367 263.715 25.2017 264.197 25.2017C264.781 25.2017 265.263 25.0367 265.644 24.7068C266.05 24.3515 266.253 23.92 266.253 23.4124C266.253 22.7018 265.885 22.08 265.149 21.5471C264.413 21.0141 263.461 20.4177 262.294 19.7578C261.71 19.4025 261.076 18.9964 260.391 18.5396C259.705 18.0574 259.122 17.4864 258.639 16.8265C258.157 16.1413 257.916 15.3291 257.916 14.3901C257.916 13.4003 258.195 12.5247 258.754 11.7633C259.337 11.002 260.099 10.3675 261.038 9.85987C261.977 9.3269 262.992 8.93352 264.083 8.67972C265.175 8.40055 266.24 8.26097 267.281 8.26097C269.235 8.26097 270.707 8.65435 271.697 9.4411C272.687 10.2279 273.182 11.0654 273.182 11.9537C273.182 12.7151 272.801 13.4003 272.04 14.0094C271.278 14.6185 270.111 14.9231 268.537 14.9231C268.563 13.6287 268.296 12.6897 267.738 12.106C267.179 11.4969 266.583 11.1923 265.949 11.1923C265.492 11.1923 265.111 11.3319 264.807 11.6111C264.502 11.8902 264.35 12.2963 264.35 12.8293C264.35 13.4384 264.54 13.9713 264.921 14.4282C265.327 14.8596 265.822 15.253 266.405 15.6083C267.015 15.9382 267.636 16.2555 268.271 16.56C269.134 16.9661 269.946 17.3975 270.707 17.8544C271.469 18.3112 272.09 18.8315 272.573 19.4152C273.055 19.9989 273.296 20.7095 273.296 21.5471C273.296 22.6891 272.826 23.7551 271.887 24.7449C270.974 25.7093 269.743 26.496 268.195 27.1051C266.647 27.6889 264.959 27.9807 263.131 27.9807Z" fill="#558EC9"/>
</svg>
